<?xml version="1.0" encoding="UTF-8" ?>
<svg version="1.1" width="68" height="68" xmlns="http://www.w3.org/2000/svg" shape-rendering="crispEdges">
<rect x="40" y="0" width="4" height="4" fill="#35353D" />
<rect x="44" y="0" width="4" height="4" fill="#35353D" />
<rect x="36" y="4" width="4" height="4" fill="#35353D" />
<rect x="40" y="4" width="4" height="4" fill="#35353D" />
<rect x="44" y="4" width="4" height="4" fill="#FFFFFF" />
<rect x="36" y="8" width="4" height="4" fill="#35353D" />
<rect x="40" y="8" width="4" height="4" fill="#FFFFFF" />
<rect x="44" y="8" width="4" height="4" fill="#FFFFFF" />
<rect x="36" y="12" width="4" height="4" fill="#35353D" />
<rect x="40" y="12" width="4" height="4" fill="#FFFFFF" />
<rect x="44" y="12" width="4" height="4" fill="#FFFFFF" />
<rect x="32" y="16" width="4" height="4" fill="#35353D" />
<rect x="36" y="16" width="4" height="4" fill="#35353D" />
<rect x="40" y="16" width="4" height="4" fill="#35353D" />
<rect x="32" y="20" width="4" height="4" fill="#35353D" />
<rect x="36" y="20" width="4" height="4" fill="#35353D" />
<rect x="40" y="20" width="4" height="4" fill="#FFFFFF" />
<rect x="48" y="20" width="4" height="4" fill="#FFFFFF" />
<rect x="52" y="20" width="4" height="4" fill="#FFFFFF" />
<rect x="28" y="24" width="4" height="4" fill="#35353D" />
<rect x="32" y="24" width="4" height="4" fill="#35353D" />
<rect x="36" y="24" width="4" height="4" fill="#35353D" />
<rect x="40" y="24" width="4" height="4" fill="#35353D" />
<rect x="44" y="24" width="4" height="4" fill="#35353D" />
<rect x="48" y="24" width="4" height="4" fill="#35353D" />
<rect x="52" y="24" width="4" height="4" fill="#FFFFFF" />
<rect x="28" y="28" width="4" height="4" fill="#35353D" />
<rect x="32" y="28" width="4" height="4" fill="#35353D" />
<rect x="36" y="28" width="4" height="4" fill="#35353D" />
<rect x="40" y="28" width="4" height="4" fill="#35353D" />
<rect x="44" y="28" width="4" height="4" fill="#35353D" />
<rect x="48" y="28" width="4" height="4" fill="#35353D" />
<rect x="24" y="32" width="4" height="4" fill="#35353D" />
<rect x="28" y="32" width="4" height="4" fill="#35353D" />
<rect x="32" y="32" width="4" height="4" fill="#35353D" />
<rect x="36" y="32" width="4" height="4" fill="#FFFFFF" />
<rect x="20" y="36" width="4" height="4" fill="#35353D" />
<rect x="24" y="36" width="4" height="4" fill="#35353D" />
<rect x="28" y="36" width="4" height="4" fill="#35353D" />
<rect x="32" y="36" width="4" height="4" fill="#FFFFFF" />
<rect x="36" y="36" width="4" height="4" fill="#FFFFFF" />
<rect x="28" y="40" width="4" height="4" fill="#35353D" />
<rect x="32" y="40" width="4" height="4" fill="#35353D" />
<rect x="36" y="40" width="4" height="4" fill="#35353D" />
<rect x="40" y="40" width="4" height="4" fill="#35353D" />
<rect x="44" y="40" width="4" height="4" fill="#35353D" />
<rect x="24" y="44" width="4" height="4" fill="#35353D" />
<rect x="28" y="44" width="4" height="4" fill="#35353D" />
<rect x="32" y="44" width="4" height="4" fill="#35353D" />
<rect x="36" y="44" width="4" height="4" fill="#35353D" />
<rect x="40" y="44" width="4" height="4" fill="#35353D" />
<rect x="44" y="44" width="4" height="4" fill="#35353D" />
<rect x="48" y="44" width="4" height="4" fill="#35353D" />
<rect x="24" y="48" width="4" height="4" fill="#35353D" />
<rect x="28" y="48" width="4" height="4" fill="#35353D" />
<rect x="44" y="48" width="4" height="4" fill="#35353D" />
<rect x="48" y="48" width="4" height="4" fill="#35353D" />
<rect x="20" y="52" width="4" height="4" fill="#35353D" />
<rect x="24" y="52" width="4" height="4" fill="#35353D" />
<rect x="28" y="52" width="4" height="4" fill="#35353D" />
<rect x="44" y="52" width="4" height="4" fill="#35353D" />
<rect x="48" y="52" width="4" height="4" fill="#35353D" />
<rect x="12" y="56" width="4" height="4" fill="#35353D" />
<rect x="16" y="56" width="4" height="4" fill="#35353D" />
<rect x="20" y="56" width="4" height="4" fill="#35353D" />
<rect x="24" y="56" width="4" height="4" fill="#35353D" />
<rect x="44" y="56" width="4" height="4" fill="#FFFFFF" />
<rect x="48" y="56" width="4" height="4" fill="#FFFFFF" />
<rect x="8" y="60" width="4" height="4" fill="#35353D" />
<rect x="12" y="60" width="4" height="4" fill="#FFFFFF" />
<rect x="16" y="60" width="4" height="4" fill="#35353D" />
<rect x="44" y="60" width="4" height="4" fill="#35353D" />
<rect x="48" y="60" width="4" height="4" fill="#35353D" />
<rect x="52" y="60" width="4" height="4" fill="#35353D" />
<rect x="8" y="64" width="4" height="4" fill="#35353D" />
</svg>